<svg xmlns="http://www.w3.org/2000/svg" fill="none" viewBox="0 0 128 128">
    <path d="M35 30h25c8.284 0 15 6.716 15 15v5c0 8.284-6.716 15-15 15H35V30zm10 10v15h15c2.761 0 5-2.239 5-5v-5c0-2.761-2.239-5-5-5H45z"/>
    <path d="M35 73h25c8.284 0 15 6.716 15 15v5c0 8.284-6.716 15-15 15H35V73zm10 10v15h15c2.761 0 5-2.239 5-5v-5c0-2.761-2.239-5-5-5H45z"/>
    <style>
        path { fill: #000; }
        @media (prefers-color-scheme: dark) {
            path { fill: #FFF; }
        }
    </style>
</svg>
